<?xml version="1.0" encoding="utf-8" ?>
<svg baseProfile="full" height="300mm" version="1.1" viewBox="0,0,200,300" width="200mm" xmlns="http://www.w3.org/2000/svg" xmlns:ev="http://www.w3.org/2001/xml-events" xmlns:xlink="http://www.w3.org/1999/xlink"><defs /><rect fill="#222222" height="300" width="200" x="0" y="0" /><text fill="#555555" style="font-size:6px; font-family:Arial;" x="11" y="19">Running for 1058 Days</text><text fill="#555555" style="font-size:6px; font-family:Arial;" x="11" y="39">Races</text><text fill="#555555" style="font-size:8px; font-family:Arial;" x="11" y="59">1</text><text fill="#FFFFFF" style="font-size:10px; font-family:Arial; font-weight:bold;" x="23" y="59">10K</text><text fill="#555555" style="font-size:6px; font-family:Arial;" x="49" y="59">26x</text><text fill="#555555" style="font-size:6px; font-family:Arial;" x="11" y="97">Stats</text><text fill="#555555" style="font-size:5px; font-family:Arial;" x="11" y="103">Distance</text><text fill="#FFFFFF" style="font-size:10px; font-family:Arial; font-weight:bold;" x="11" y="114">1653</text><text fill="#555555" style="font-size:6px; font-family:Arial;" x="35" y="114">km</text><text fill="#555555" style="font-size:5px; font-family:Arial;" x="53" y="103">Runs</text><text fill="#FFFFFF" style="font-size:10px; font-family:Arial; font-weight:bold;" x="53" y="114">579</text><text fill="#555555" style="font-size:5px; font-family:Arial;" x="11" y="131">Avg Pace</text><text fill="#FFFFFF" style="font-size:10px; font-family:Arial; font-weight:bold;" x="11" y="142">10'29"</text><text fill="#555555" style="font-size:5px; font-family:Arial;" x="53" y="131">Streak</text><text fill="#FFFFFF" style="font-size:10px; font-family:Arial; font-weight:bold;" x="53" y="142">60</text><text fill="#555555" style="font-size:6px; font-family:Arial;" x="65" y="142">d</text><text fill="#555555" style="font-size:5px; font-family:Arial;" x="11" y="159">Time</text><text fill="#FFFFFF" style="font-size:10px; font-family:Arial; font-weight:bold;" x="11" y="170">289</text><text fill="#555555" style="font-size:6px; font-family:Arial;" x="29" y="170">h</text><text fill="#555555" style="font-size:5px; font-family:Arial;" x="53" y="159">Longest</text><text fill="#FFFFFF" style="font-size:10px; font-family:Arial; font-weight:bold;" x="53" y="170">18.5</text><text fill="#555555" style="font-size:5px; font-family:Arial;" x="11" y="252.0645161290322">Runner</text><text fill="#FFFFFF" style="font-size:8px; font-family:Arial; font-weight:bold;" x="11" y="262.0645161290322">deng2i</text><text fill="#555555" style="font-size:7px; font-family:Arial;" x="11" y="285.5806451612903">running_page/2024</text><circle cx="85.41666666666667" cy="17.419354838709676" fill="#555555" r="3.3125"><title>2024-01-01</title></circle><circle cx="85.41666666666667" cy="26.25806451612903" fill="#555555" r="3.3125"><title>2024-01-02</title></circle><circle cx="85.41666666666667" cy="35.096774193548384" fill="#555555" r="3.3125"><title>2024-01-03</title></circle><circle cx="85.41666666666667" cy="43.935483870967744" fill="#53646a" r="3.3125"><title>2024-01-04: 1 km</title></circle><circle cx="85.41666666666667" cy="52.774193548387096" fill="#555555" r="3.3125"><title>2024-01-05</title></circle><circle cx="85.41666666666667" cy="61.61290322580645" fill="#4fa5c2" r="3.3125"><title>2024-01-06: 6 km</title></circle><circle cx="85.41666666666667" cy="70.45161290322581" fill="#555555" r="3.3125"><title>2024-01-07</title></circle><circle cx="85.41666666666667" cy="79.29032258064517" fill="#527a88" r="3.3125"><title>2024-01-08: 3 km</title></circle><circle cx="85.41666666666667" cy="88.12903225806451" fill="#518ea3" r="3.3125"><title>2024-01-09: 4 km</title></circle><circle cx="85.41666666666667" cy="96.96774193548387" fill="#555555" r="3.3125"><title>2024-01-10</title></circle><circle cx="85.41666666666667" cy="105.80645161290322" fill="#53727c" r="3.3125"><title>2024-01-11: 2 km</title></circle><circle cx="85.41666666666667" cy="114.64516129032258" fill="#527c8a" r="3.3125"><title>2024-01-12: 3 km</title></circle><circle cx="85.41666666666667" cy="123.48387096774194" fill="#FFFF00" r="3.3125"><title>2024-01-13: 16 km</title></circle><circle cx="85.41666666666667" cy="132.32258064516128" fill="#53727c" r="3.3125"><title>2024-01-14: 2 km</title></circle><circle cx="85.41666666666667" cy="141.16129032258064" fill="#546368" r="3.3125"><title>2024-01-15: 1 km</title></circle><circle cx="85.41666666666667" cy="149.99999999999997" fill="#53727c" r="3.3125"><title>2024-01-16: 2 km</title></circle><circle cx="85.41666666666667" cy="158.83870967741933" fill="#536a71" r="3.3125"><title>2024-01-17: 1 km</title></circle><circle cx="85.41666666666667" cy="167.6774193548387" fill="#518a9d" r="3.3125"><title>2024-01-18: 4 km</title></circle><circle cx="85.41666666666667" cy="176.51612903225805" fill="#527d8c" r="3.3125"><title>2024-01-19: 3 km</title></circle><circle cx="85.41666666666667" cy="185.35483870967738" fill="#527682" r="3.3125"><title>2024-01-20: 2 km</title></circle><circle cx="85.41666666666667" cy="194.19354838709674" fill="#555555" r="3.3125"><title>2024-01-21</title></circle><circle cx="85.41666666666667" cy="203.0322580645161" fill="#555555" r="3.3125"><title>2024-01-22</title></circle><circle cx="85.41666666666667" cy="211.87096774193546" fill="#518697" r="3.3125"><title>2024-01-23: 3 km</title></circle><circle cx="85.41666666666667" cy="220.70967741935482" fill="#555555" r="3.3125"><title>2024-01-24</title></circle><circle cx="85.41666666666667" cy="229.54838709677418" fill="#4ebce2" r="3.3125"><title>2024-01-25: 8 km</title></circle><circle cx="85.41666666666667" cy="238.3870967741935" fill="#5099b2" r="3.3125"><title>2024-01-26: 5 km</title></circle><circle cx="85.41666666666667" cy="247.22580645161287" fill="#546368" r="3.3125"><title>2024-01-27: 1 km</title></circle><circle cx="85.41666666666667" cy="256.06451612903226" fill="#546368" r="3.3125"><title>2024-01-28: 1 km</title></circle><circle cx="85.41666666666667" cy="264.90322580645164" fill="#555555" r="3.3125"><title>2024-01-29</title></circle><circle cx="85.41666666666667" cy="273.741935483871" fill="#555555" r="3.3125"><title>2024-01-30</title></circle><circle cx="85.41666666666667" cy="282.5806451612903" fill="#555555" r="3.3125"><title>2024-01-31</title></circle><circle cx="94.25" cy="17.419354838709676" fill="#555555" r="3.3125"><title>2024-02-01</title></circle><circle cx="94.25" cy="26.25806451612903" fill="#555555" r="3.3125"><title>2024-02-02</title></circle><circle cx="94.25" cy="35.096774193548384" fill="#555555" r="3.3125"><title>2024-02-03</title></circle><circle cx="94.25" cy="43.935483870967744" fill="#555555" r="3.3125"><title>2024-02-04</title></circle><circle cx="94.25" cy="52.774193548387096" fill="#555555" r="3.3125"><title>2024-02-05</title></circle><circle cx="94.25" cy="61.61290322580645" fill="#555555" r="3.3125"><title>2024-02-06</title></circle><circle cx="94.25" cy="70.45161290322581" fill="#555555" r="3.3125"><title>2024-02-07</title></circle><circle cx="94.25" cy="79.29032258064517" fill="#53656b" r="3.3125"><title>2024-02-08: 1 km</title></circle><circle cx="94.25" cy="88.12903225806451" fill="#555555" r="3.3125"><title>2024-02-09</title></circle><circle cx="94.25" cy="96.96774193548387" fill="#555555" r="3.3125"><title>2024-02-10</title></circle><circle cx="94.25" cy="105.80645161290322" fill="#555555" r="3.3125"><title>2024-02-11</title></circle><circle cx="94.25" cy="114.64516129032258" fill="#4fb2d4" r="3.3125"><title>2024-02-12: 7 km</title></circle><circle cx="94.25" cy="123.48387096774194" fill="#528292" r="3.3125"><title>2024-02-13: 3 km</title></circle><circle cx="94.25" cy="132.32258064516128" fill="#555555" r="3.3125"><title>2024-02-14</title></circle><circle cx="94.25" cy="141.16129032258064" fill="#555555" r="3.3125"><title>2024-02-15</title></circle><circle cx="94.25" cy="149.99999999999997" fill="#555555" r="3.3125"><title>2024-02-16</title></circle><circle cx="94.25" cy="158.83870967741933" fill="#555555" r="3.3125"><title>2024-02-17</title></circle><circle cx="94.25" cy="167.6774193548387" fill="#555555" r="3.3125"><title>2024-02-18</title></circle><circle cx="94.25" cy="176.51612903225805" fill="#546266" r="3.3125"><title>2024-02-19: 1 km</title></circle><circle cx="94.25" cy="185.35483870967738" fill="#53727c" r="3.3125"><title>2024-02-20: 2 km</title></circle><circle cx="94.25" cy="194.19354838709674" fill="#555555" r="3.3125"><title>2024-02-21</title></circle><circle cx="94.25" cy="203.0322580645161" fill="#5191a7" r="3.3125"><title>2024-02-22: 4 km</title></circle><circle cx="94.25" cy="211.87096774193546" fill="#51879a" r="3.3125"><title>2024-02-23: 4 km</title></circle><circle cx="94.25" cy="220.70967741935482" fill="#509ab3" r="3.3125"><title>2024-02-24: 5 km</title></circle><circle cx="94.25" cy="229.54838709677418" fill="#527885" r="3.3125"><title>2024-02-25: 2 km</title></circle><circle cx="94.25" cy="238.3870967741935" fill="#53666c" r="3.3125"><title>2024-02-26: 1 km</title></circle><circle cx="94.25" cy="247.22580645161287" fill="#555555" r="3.3125"><title>2024-02-27</title></circle><circle cx="94.25" cy="256.06451612903226" fill="#53656b" r="3.3125"><title>2024-02-28: 1 km</title></circle><circle cx="94.25" cy="264.90322580645164" fill="#555555" r="3.3125"><title>2024-02-29</title></circle><circle cx="103.08333333333334" cy="17.419354838709676" fill="#53717c" r="3.3125"><title>2024-03-01: 2 km</title></circle><circle cx="103.08333333333334" cy="26.25806451612903" fill="#5098b0" r="3.3125"><title>2024-03-02: 5 km</title></circle><circle cx="103.08333333333334" cy="35.096774193548384" fill="#536b73" r="3.3125"><title>2024-03-03: 1 km</title></circle><circle cx="103.08333333333334" cy="43.935483870967744" fill="#527480" r="3.3125"><title>2024-03-04: 2 km</title></circle><circle cx="103.08333333333334" cy="52.774193548387096" fill="#4fabca" r="3.3125"><title>2024-03-05: 6 km</title></circle><circle cx="103.08333333333334" cy="61.61290322580645" fill="#527580" r="3.3125"><title>2024-03-06: 2 km</title></circle><circle cx="103.08333333333334" cy="70.45161290322581" fill="#5191a6" r="3.3125"><title>2024-03-07: 4 km</title></circle><circle cx="103.08333333333334" cy="79.29032258064517" fill="#4eb5d7" r="3.3125"><title>2024-03-08: 7 km</title></circle><circle cx="103.08333333333334" cy="88.12903225806451" fill="#527986" r="3.3125"><title>2024-03-09: 2 km</title></circle><circle cx="103.08333333333334" cy="96.96774193548387" fill="#4fa5c2" r="3.3125"><title>2024-03-10: 6 km</title></circle><circle cx="103.08333333333334" cy="105.80645161290322" fill="#555555" r="3.3125"><title>2024-03-11</title></circle><circle cx="103.08333333333334" cy="114.64516129032258" fill="#527884" r="3.3125"><title>2024-03-12: 2 km</title></circle><circle cx="103.08333333333334" cy="123.48387096774194" fill="#53666c" r="3.3125"><title>2024-03-13: 1 km</title></circle><circle cx="103.08333333333334" cy="132.32258064516128" fill="#546368" r="3.3125"><title>2024-03-14: 1 km</title></circle><circle cx="103.08333333333334" cy="141.16129032258064" fill="#51889a" r="3.3125"><title>2024-03-15: 4 km</title></circle><circle cx="103.08333333333334" cy="149.99999999999997" fill="#4fa8c6" r="3.3125"><title>2024-03-16: 6 km</title></circle><circle cx="103.08333333333334" cy="158.83870967741933" fill="#518b9f" r="3.3125"><title>2024-03-17: 4 km</title></circle><circle cx="103.08333333333334" cy="167.6774193548387" fill="#518ca0" r="3.3125"><title>2024-03-18: 4 km</title></circle><circle cx="103.08333333333334" cy="176.51612903225805" fill="#527885" r="3.3125"><title>2024-03-19: 2 km</title></circle><circle cx="103.08333333333334" cy="185.35483870967738" fill="#555555" r="3.3125"><title>2024-03-20</title></circle><circle cx="103.08333333333334" cy="194.19354838709674" fill="#53727d" r="3.3125"><title>2024-03-21: 2 km</title></circle><circle cx="103.08333333333334" cy="203.0322580645161" fill="#528292" r="3.3125"><title>2024-03-22: 3 km</title></circle><circle cx="103.08333333333334" cy="211.87096774193546" fill="#555555" r="3.3125"><title>2024-03-23</title></circle><circle cx="103.08333333333334" cy="220.70967741935482" fill="#4fadcd" r="3.3125"><title>2024-03-24: 7 km</title></circle><circle cx="103.08333333333334" cy="229.54838709677418" fill="#51889a" r="3.3125"><title>2024-03-25: 4 km</title></circle><circle cx="103.08333333333334" cy="238.3870967741935" fill="#50a1bc" r="3.3125"><title>2024-03-26: 6 km</title></circle><circle cx="103.08333333333334" cy="247.22580645161287" fill="#528191" r="3.3125"><title>2024-03-27: 3 km</title></circle><circle cx="103.08333333333334" cy="256.06451612903226" fill="#53737e" r="3.3125"><title>2024-03-28: 2 km</title></circle><circle cx="103.08333333333334" cy="264.90322580645164" fill="#527e8d" r="3.3125"><title>2024-03-29: 3 km</title></circle><circle cx="103.08333333333334" cy="273.741935483871" fill="#53737d" r="3.3125"><title>2024-03-30: 2 km</title></circle><circle cx="103.08333333333334" cy="282.5806451612903" fill="#53707a" r="3.3125"><title>2024-03-31: 2 km</title></circle><circle cx="111.91666666666667" cy="17.419354838709676" fill="#555555" r="3.3125"><title>2024-04-01</title></circle><circle cx="111.91666666666667" cy="26.25806451612903" fill="#518495" r="3.3125"><title>2024-04-02: 3 km</title></circle><circle cx="111.91666666666667" cy="35.096774193548384" fill="#527784" r="3.3125"><title>2024-04-03: 2 km</title></circle><circle cx="111.91666666666667" cy="43.935483870967744" fill="#528293" r="3.3125"><title>2024-04-04: 3 km</title></circle><circle cx="111.91666666666667" cy="52.774193548387096" fill="#518495" r="3.3125"><title>2024-04-05: 3 km</title></circle><circle cx="111.91666666666667" cy="61.61290322580645" fill="#527b88" r="3.3125"><title>2024-04-06: 3 km</title></circle><circle cx="111.91666666666667" cy="70.45161290322581" fill="#5097af" r="3.3125"><title>2024-04-07: 5 km</title></circle><circle cx="111.91666666666667" cy="79.29032258064517" fill="#555555" r="3.3125"><title>2024-04-08</title></circle><circle cx="111.91666666666667" cy="88.12903225806451" fill="#536c75" r="3.3125"><title>2024-04-09: 1 km</title></circle><circle cx="111.91666666666667" cy="96.96774193548387" fill="#546368" r="3.3125"><title>2024-04-10: 1 km</title></circle><circle cx="111.91666666666667" cy="105.80645161290322" fill="#5099b2" r="3.3125"><title>2024-04-11: 5 km</title></circle><circle cx="111.91666666666667" cy="114.64516129032258" fill="#527d8c" r="3.3125"><title>2024-04-12: 3 km</title></circle><circle cx="111.91666666666667" cy="123.48387096774194" fill="#536a71" r="3.3125"><title>2024-04-13: 1 km</title></circle><circle cx="111.91666666666667" cy="132.32258064516128" fill="#527986" r="3.3125"><title>2024-04-14: 2 km</title></circle><circle cx="111.91666666666667" cy="141.16129032258064" fill="#4dcaf5" r="3.3125"><title>2024-04-15: 9 km</title></circle><circle cx="111.91666666666667" cy="149.99999999999997" fill="#53666d" r="3.3125"><title>2024-04-16: 1 km</title></circle><circle cx="111.91666666666667" cy="158.83870967741933" fill="#518b9f" r="3.3125"><title>2024-04-17: 4 km</title></circle><circle cx="111.91666666666667" cy="167.6774193548387" fill="#536a72" r="3.3125"><title>2024-04-18: 1 km</title></circle><circle cx="111.91666666666667" cy="176.51612903225805" fill="#518ea2" r="3.3125"><title>2024-04-19: 4 km</title></circle><circle cx="111.91666666666667" cy="185.35483870967738" fill="#5192a8" r="3.3125"><title>2024-04-20: 4 km</title></circle><circle cx="111.91666666666667" cy="194.19354838709674" fill="#536e77" r="3.3125"><title>2024-04-21: 2 km</title></circle><circle cx="111.91666666666667" cy="203.0322580645161" fill="#555555" r="3.3125"><title>2024-04-22</title></circle><circle cx="111.91666666666667" cy="211.87096774193546" fill="#555555" r="3.3125"><title>2024-04-23</title></circle><circle cx="111.91666666666667" cy="220.70967741935482" fill="#518698" r="3.3125"><title>2024-04-24: 3 km</title></circle><circle cx="111.91666666666667" cy="229.54838709677418" fill="#527a88" r="3.3125"><title>2024-04-25: 3 km</title></circle><circle cx="111.91666666666667" cy="238.3870967741935" fill="#5190a5" r="3.3125"><title>2024-04-26: 4 km</title></circle><circle cx="111.91666666666667" cy="247.22580645161287" fill="#FFFF00" r="3.3125"><title>2024-04-27: 14 km</title></circle><circle cx="111.91666666666667" cy="256.06451612903226" fill="#536e77" r="3.3125"><title>2024-04-28: 2 km</title></circle><circle cx="111.91666666666667" cy="264.90322580645164" fill="#536d76" r="3.3125"><title>2024-04-29: 1 km</title></circle><circle cx="111.91666666666667" cy="273.741935483871" fill="#527683" r="3.3125"><title>2024-04-30: 2 km</title></circle><circle cx="120.75000000000001" cy="17.419354838709676" fill="#518799" r="3.3125"><title>2024-05-01: 4 km</title></circle><circle cx="120.75000000000001" cy="26.25806451612903" fill="#5192a8" r="3.3125"><title>2024-05-02: 4 km</title></circle><circle cx="120.75000000000001" cy="35.096774193548384" fill="#5099b2" r="3.3125"><title>2024-05-03: 5 km</title></circle><circle cx="120.75000000000001" cy="43.935483870967744" fill="#527a87" r="3.3125"><title>2024-05-04: 2 km</title></circle><circle cx="120.75000000000001" cy="52.774193548387096" fill="#518a9d" r="3.3125"><title>2024-05-05: 4 km</title></circle><circle cx="120.75000000000001" cy="61.61290322580645" fill="#4fa9c7" r="3.3125"><title>2024-05-06: 6 km</title></circle><circle cx="120.75000000000001" cy="70.45161290322581" fill="#555555" r="3.3125"><title>2024-05-07</title></circle><circle cx="120.75000000000001" cy="79.29032258064517" fill="#5094aa" r="3.3125"><title>2024-05-08: 5 km</title></circle><circle cx="120.75000000000001" cy="88.12903225806451" fill="#536a72" r="3.3125"><title>2024-05-09: 1 km</title></circle><circle cx="120.75000000000001" cy="96.96774193548387" fill="#546369" r="3.3125"><title>2024-05-10: 1 km</title></circle><circle cx="120.75000000000001" cy="105.80645161290322" fill="#536c74" r="3.3125"><title>2024-05-11: 1 km</title></circle><circle cx="120.75000000000001" cy="114.64516129032258" fill="#527986" r="3.3125"><title>2024-05-12: 2 km</title></circle><circle cx="120.75000000000001" cy="123.48387096774194" fill="#555555" r="3.3125"><title>2024-05-13</title></circle><circle cx="120.75000000000001" cy="132.32258064516128" fill="#536a72" r="3.3125"><title>2024-05-14: 1 km</title></circle><circle cx="120.75000000000001" cy="141.16129032258064" fill="#536e77" r="3.3125"><title>2024-05-15: 2 km</title></circle><circle cx="120.75000000000001" cy="149.99999999999997" fill="#4dcdf9" r="3.3125"><title>2024-05-16: 9 km</title></circle><circle cx="120.75000000000001" cy="158.83870967741933" fill="#555555" r="3.3125"><title>2024-05-17</title></circle><circle cx="120.75000000000001" cy="167.6774193548387" fill="#4eb9dd" r="3.3125"><title>2024-05-18: 8 km</title></circle><circle cx="120.75000000000001" cy="176.51612903225805" fill="#555555" r="3.3125"><title>2024-05-19</title></circle><circle cx="120.75000000000001" cy="185.35483870967738" fill="#555555" r="3.3125"><title>2024-05-20</title></circle><circle cx="120.75000000000001" cy="194.19354838709674" fill="#527580" r="3.3125"><title>2024-05-21: 2 km</title></circle><circle cx="120.75000000000001" cy="203.0322580645161" fill="#555555" r="3.3125"><title>2024-05-22</title></circle><circle cx="120.75000000000001" cy="211.87096774193546" fill="#53707a" r="3.3125"><title>2024-05-23: 2 km</title></circle><circle cx="120.75000000000001" cy="220.70967741935482" fill="#536970" r="3.3125"><title>2024-05-24: 1 km</title></circle><circle cx="120.75000000000001" cy="229.54838709677418" fill="#536b74" r="3.3125"><title>2024-05-25: 1 km</title></circle><circle cx="120.75000000000001" cy="238.3870967741935" fill="#555555" r="3.3125"><title>2024-05-26</title></circle><circle cx="120.75000000000001" cy="247.22580645161287" fill="#555555" r="3.3125"><title>2024-05-27</title></circle><circle cx="120.75000000000001" cy="256.06451612903226" fill="#53727d" r="3.3125"><title>2024-05-28: 2 km</title></circle><circle cx="120.75000000000001" cy="264.90322580645164" fill="#50a1bc" r="3.3125"><title>2024-05-29: 6 km</title></circle><circle cx="120.75000000000001" cy="273.741935483871" fill="#555555" r="3.3125"><title>2024-05-30</title></circle><circle cx="120.75000000000001" cy="282.5806451612903" fill="#536a72" r="3.3125"><title>2024-05-31: 1 km</title></circle><circle cx="129.58333333333334" cy="17.419354838709676" fill="#555555" r="3.3125"><title>2024-06-01</title></circle><circle cx="129.58333333333334" cy="26.25806451612903" fill="#527e8d" r="3.3125"><title>2024-06-02: 3 km</title></circle><circle cx="129.58333333333334" cy="35.096774193548384" fill="#555555" r="3.3125"><title>2024-06-03</title></circle><circle cx="129.58333333333334" cy="43.935483870967744" fill="#555555" r="3.3125"><title>2024-06-04</title></circle><circle cx="129.58333333333334" cy="52.774193548387096" fill="#51899b" r="3.3125"><title>2024-06-05: 4 km</title></circle><circle cx="129.58333333333334" cy="61.61290322580645" fill="#555555" r="3.3125"><title>2024-06-06</title></circle><circle cx="129.58333333333334" cy="70.45161290322581" fill="#527885" r="3.3125"><title>2024-06-07: 2 km</title></circle><circle cx="129.58333333333334" cy="79.29032258064517" fill="#5192a8" r="3.3125"><title>2024-06-08: 4 km</title></circle><circle cx="129.58333333333334" cy="88.12903225806451" fill="#53717b" r="3.3125"><title>2024-06-09: 2 km</title></circle><circle cx="129.58333333333334" cy="96.96774193548387" fill="#4dc3eb" r="3.3125"><title>2024-06-10: 8 km</title></circle><circle cx="129.58333333333334" cy="105.80645161290322" fill="#527b88" r="3.3125"><title>2024-06-11: 3 km</title></circle><circle cx="129.58333333333334" cy="114.64516129032258" fill="#536c75" r="3.3125"><title>2024-06-12: 1 km</title></circle><circle cx="129.58333333333334" cy="123.48387096774194" fill="#4fa3c0" r="3.3125"><title>2024-06-13: 6 km</title></circle><circle cx="129.58333333333334" cy="132.32258064516128" fill="#536d76" r="3.3125"><title>2024-06-14: 1 km</title></circle><circle cx="129.58333333333334" cy="141.16129032258064" fill="#546267" r="3.3125"><title>2024-06-15: 1 km</title></circle><circle cx="129.58333333333334" cy="149.99999999999997" fill="#555555" r="3.3125"><title>2024-06-16</title></circle><circle cx="129.58333333333334" cy="158.83870967741933" fill="#527986" r="3.3125"><title>2024-06-17: 2 km</title></circle><circle cx="129.58333333333334" cy="167.6774193548387" fill="#518ca0" r="3.3125"><title>2024-06-18: 4 km</title></circle><circle cx="129.58333333333334" cy="176.51612903225805" fill="#536e77" r="3.3125"><title>2024-06-19: 2 km</title></circle><circle cx="129.58333333333334" cy="185.35483870967738" fill="#50a0bb" r="3.3125"><title>2024-06-20: 6 km</title></circle><circle cx="129.58333333333334" cy="194.19354838709674" fill="#527f8f" r="3.3125"><title>2024-06-21: 3 km</title></circle><circle cx="129.58333333333334" cy="203.0322580645161" fill="#536e77" r="3.3125"><title>2024-06-22: 2 km</title></circle><circle cx="129.58333333333334" cy="211.87096774193546" fill="#509cb6" r="3.3125"><title>2024-06-23: 5 km</title></circle><circle cx="129.58333333333334" cy="220.70967741935482" fill="#5099b1" r="3.3125"><title>2024-06-24: 5 km</title></circle><circle cx="129.58333333333334" cy="229.54838709677418" fill="#51899c" r="3.3125"><title>2024-06-25: 4 km</title></circle><circle cx="129.58333333333334" cy="238.3870967741935" fill="#555555" r="3.3125"><title>2024-06-26</title></circle><circle cx="129.58333333333334" cy="247.22580645161287" fill="#518fa4" r="3.3125"><title>2024-06-27: 4 km</title></circle><circle cx="129.58333333333334" cy="256.06451612903226" fill="#527c8a" r="3.3125"><title>2024-06-28: 3 km</title></circle><circle cx="129.58333333333334" cy="264.90322580645164" fill="#518fa5" r="3.3125"><title>2024-06-29: 4 km</title></circle><circle cx="129.58333333333334" cy="273.741935483871" fill="#FFFF00" r="3.3125"><title>2024-06-30: 10 km</title></circle><circle cx="138.41666666666666" cy="17.419354838709676" fill="#4fadcd" r="3.3125"><title>2024-07-01: 7 km</title></circle><circle cx="138.41666666666666" cy="26.25806451612903" fill="#4eb8dc" r="3.3125"><title>2024-07-02: 7 km</title></circle><circle cx="138.41666666666666" cy="35.096774193548384" fill="#5095ac" r="3.3125"><title>2024-07-03: 5 km</title></circle><circle cx="138.41666666666666" cy="43.935483870967744" fill="#4dc4ec" r="3.3125"><title>2024-07-04: 8 km</title></circle><circle cx="138.41666666666666" cy="52.774193548387096" fill="#4ebbe0" r="3.3125"><title>2024-07-05: 8 km</title></circle><circle cx="138.41666666666666" cy="61.61290322580645" fill="#4fadcc" r="3.3125"><title>2024-07-06: 7 km</title></circle><circle cx="138.41666666666666" cy="70.45161290322581" fill="#4fa7c5" r="3.3125"><title>2024-07-07: 6 km</title></circle><circle cx="138.41666666666666" cy="79.29032258064517" fill="#527a88" r="3.3125"><title>2024-07-08: 3 km</title></circle><circle cx="138.41666666666666" cy="88.12903225806451" fill="#4eb4d7" r="3.3125"><title>2024-07-09: 7 km</title></circle><circle cx="138.41666666666666" cy="96.96774193548387" fill="#509db7" r="3.3125"><title>2024-07-10: 5 km</title></circle><circle cx="138.41666666666666" cy="105.80645161290322" fill="#4dcdf8" r="3.3125"><title>2024-07-11: 9 km</title></circle><circle cx="138.41666666666666" cy="114.64516129032258" fill="#518b9e" r="3.3125"><title>2024-07-12: 4 km</title></circle><circle cx="138.41666666666666" cy="123.48387096774194" fill="#4fa4c0" r="3.3125"><title>2024-07-13: 6 km</title></circle><circle cx="138.41666666666666" cy="132.32258064516128" fill="#4faece" r="3.3125"><title>2024-07-14: 7 km</title></circle><circle cx="138.41666666666666" cy="141.16129032258064" fill="#4eb6d9" r="3.3125"><title>2024-07-15: 7 km</title></circle><circle cx="138.41666666666666" cy="149.99999999999997" fill="#4fb0d1" r="3.3125"><title>2024-07-16: 7 km</title></circle><circle cx="138.41666666666666" cy="158.83870967741933" fill="#FFFF00" r="3.3125"><title>2024-07-17: 11 km</title></circle><circle cx="138.41666666666666" cy="167.6774193548387" fill="#509ab3" r="3.3125"><title>2024-07-18: 5 km</title></circle><circle cx="138.41666666666666" cy="176.51612903225805" fill="#509ab3" r="3.3125"><title>2024-07-19: 5 km</title></circle><circle cx="138.41666666666666" cy="185.35483870967738" fill="#4dc9f3" r="3.3125"><title>2024-07-20: 9 km</title></circle><circle cx="138.41666666666666" cy="194.19354838709674" fill="#4fa6c3" r="3.3125"><title>2024-07-21: 6 km</title></circle><circle cx="138.41666666666666" cy="203.0322580645161" fill="#4fa6c4" r="3.3125"><title>2024-07-22: 6 km</title></circle><circle cx="138.41666666666666" cy="211.87096774193546" fill="#FFFF00" r="3.3125"><title>2024-07-23: 12 km</title></circle><circle cx="138.41666666666666" cy="220.70967741935482" fill="#FFFF00" r="3.3125"><title>2024-07-24: 10 km</title></circle><circle cx="138.41666666666666" cy="229.54838709677418" fill="#536e77" r="3.3125"><title>2024-07-25: 2 km</title></circle><circle cx="138.41666666666666" cy="238.3870967741935" fill="#555555" r="3.3125"><title>2024-07-26</title></circle><circle cx="138.41666666666666" cy="247.22580645161287" fill="#527581" r="3.3125"><title>2024-07-27: 2 km</title></circle><circle cx="138.41666666666666" cy="256.06451612903226" fill="#4fa7c4" r="3.3125"><title>2024-07-28: 6 km</title></circle><circle cx="138.41666666666666" cy="264.90322580645164" fill="#555555" r="3.3125"><title>2024-07-29</title></circle><circle cx="138.41666666666666" cy="273.741935483871" fill="#518799" r="3.3125"><title>2024-07-30: 4 km</title></circle><circle cx="138.41666666666666" cy="282.5806451612903" fill="#5093aa" r="3.3125"><title>2024-07-31: 5 km</title></circle><circle cx="147.25" cy="17.419354838709676" fill="#555555" r="3.3125"><title>2024-08-01</title></circle><circle cx="147.25" cy="26.25806451612903" fill="#5093aa" r="3.3125"><title>2024-08-02: 5 km</title></circle><circle cx="147.25" cy="35.096774193548384" fill="#555555" r="3.3125"><title>2024-08-03</title></circle><circle cx="147.25" cy="43.935483870967744" fill="#555555" r="3.3125"><title>2024-08-04</title></circle><circle cx="147.25" cy="52.774193548387096" fill="#555555" r="3.3125"><title>2024-08-05</title></circle><circle cx="147.25" cy="61.61290322580645" fill="#555555" r="3.3125"><title>2024-08-06</title></circle><circle cx="147.25" cy="70.45161290322581" fill="#555555" r="3.3125"><title>2024-08-07</title></circle><circle cx="147.25" cy="79.29032258064517" fill="#FFFF00" r="3.3125"><title>2024-08-08: 10 km</title></circle><circle cx="147.25" cy="88.12903225806451" fill="#555555" r="3.3125"><title>2024-08-09</title></circle><circle cx="147.25" cy="96.96774193548387" fill="#555555" r="3.3125"><title>2024-08-10</title></circle><circle cx="147.25" cy="105.80645161290322" fill="#555555" r="3.3125"><title>2024-08-11</title></circle><circle cx="147.25" cy="114.64516129032258" fill="#536c74" r="3.3125"><title>2024-08-12: 1 km</title></circle><circle cx="147.25" cy="123.48387096774194" fill="#555555" r="3.3125"><title>2024-08-13</title></circle><circle cx="147.25" cy="132.32258064516128" fill="#555555" r="3.3125"><title>2024-08-14</title></circle><circle cx="147.25" cy="141.16129032258064" fill="#5093aa" r="3.3125"><title>2024-08-15: 5 km</title></circle><circle cx="147.25" cy="149.99999999999997" fill="#509fba" r="3.3125"><title>2024-08-16: 5 km</title></circle><circle cx="147.25" cy="158.83870967741933" fill="#50a3bf" r="3.3125"><title>2024-08-17: 6 km</title></circle><circle cx="147.25" cy="167.6774193548387" fill="#555555" r="3.3125"><title>2024-08-18</title></circle><circle cx="147.25" cy="176.51612903225805" fill="#555555" r="3.3125"><title>2024-08-19</title></circle><circle cx="147.25" cy="185.35483870967738" fill="#536f78" r="3.3125"><title>2024-08-20: 2 km</title></circle><circle cx="147.25" cy="194.19354838709674" fill="#5095ac" r="3.3125"><title>2024-08-21: 5 km</title></circle><circle cx="147.25" cy="203.0322580645161" fill="#5093aa" r="3.3125"><title>2024-08-22: 5 km</title></circle><circle cx="147.25" cy="211.87096774193546" fill="#546267" r="3.3125"><title>2024-08-23: 1 km</title></circle><circle cx="147.25" cy="220.70967741935482" fill="#555555" r="3.3125"><title>2024-08-24</title></circle><circle cx="147.25" cy="229.54838709677418" fill="#53707a" r="3.3125"><title>2024-08-25: 2 km</title></circle><circle cx="147.25" cy="238.3870967741935" fill="#4ebfe6" r="3.3125"><title>2024-08-26: 8 km</title></circle><circle cx="147.25" cy="247.22580645161287" fill="#518495" r="3.3125"><title>2024-08-27: 3 km</title></circle><circle cx="147.25" cy="256.06451612903226" fill="#555555" r="3.3125"><title>2024-08-28</title></circle><circle cx="147.25" cy="264.90322580645164" fill="#527987" r="3.3125"><title>2024-08-29: 2 km</title></circle><circle cx="147.25" cy="273.741935483871" fill="#528393" r="3.3125"><title>2024-08-30: 3 km</title></circle><circle cx="147.25" cy="282.5806451612903" fill="#555555" r="3.3125"><title>2024-08-31</title></circle><circle cx="156.08333333333334" cy="17.419354838709676" fill="#527a88" r="3.3125"><title>2024-09-01: 3 km</title></circle><circle cx="156.08333333333334" cy="26.25806451612903" fill="#51899b" r="3.3125"><title>2024-09-02: 4 km</title></circle><circle cx="156.08333333333334" cy="35.096774193548384" fill="#4fa6c3" r="3.3125"><title>2024-09-03: 6 km</title></circle><circle cx="156.08333333333334" cy="43.935483870967744" fill="#4dcaf5" r="3.3125"><title>2024-09-04: 9 km</title></circle><circle cx="156.08333333333334" cy="52.774193548387096" fill="#FFFF00" r="3.3125"><title>2024-09-05: 10 km</title></circle><circle cx="156.08333333333334" cy="61.61290322580645" fill="#4dc7f1" r="3.3125"><title>2024-09-06: 9 km</title></circle><circle cx="156.08333333333334" cy="70.45161290322581" fill="#4fb0d1" r="3.3125"><title>2024-09-07: 7 km</title></circle><circle cx="156.08333333333334" cy="79.29032258064517" fill="#4fb1d2" r="3.3125"><title>2024-09-08: 7 km</title></circle><circle cx="156.08333333333334" cy="88.12903225806451" fill="#5093aa" r="3.3125"><title>2024-09-09: 5 km</title></circle><circle cx="156.08333333333334" cy="96.96774193548387" fill="#50a1bc" r="3.3125"><title>2024-09-10: 6 km</title></circle><circle cx="156.08333333333334" cy="105.80645161290322" fill="#5094ab" r="3.3125"><title>2024-09-11: 5 km</title></circle><circle cx="156.08333333333334" cy="114.64516129032258" fill="#4fa5c2" r="3.3125"><title>2024-09-12: 6 km</title></circle><circle cx="156.08333333333334" cy="123.48387096774194" fill="#5093aa" r="3.3125"><title>2024-09-13: 5 km</title></circle><circle cx="156.08333333333334" cy="132.32258064516128" fill="#50a2be" r="3.3125"><title>2024-09-14: 6 km</title></circle><circle cx="156.08333333333334" cy="141.16129032258064" fill="#FFFF00" r="3.3125"><title>2024-09-15: 10 km</title></circle><circle cx="156.08333333333334" cy="149.99999999999997" fill="#4ec1e8" r="3.3125"><title>2024-09-16: 8 km</title></circle><circle cx="156.08333333333334" cy="158.83870967741933" fill="#FFFF00" r="3.3125"><title>2024-09-17: 11 km</title></circle><circle cx="156.08333333333334" cy="167.6774193548387" fill="#FFFF00" r="3.3125"><title>2024-09-18: 12 km</title></circle><circle cx="156.08333333333334" cy="176.51612903225805" fill="#5093aa" r="3.3125"><title>2024-09-19: 5 km</title></circle><circle cx="156.08333333333334" cy="185.35483870967738" fill="#4eb9dd" r="3.3125"><title>2024-09-20: 8 km</title></circle><circle cx="156.08333333333334" cy="194.19354838709674" fill="#5094aa" r="3.3125"><title>2024-09-21: 5 km</title></circle><circle cx="156.08333333333334" cy="203.0322580645161" fill="#53717b" r="3.3125"><title>2024-09-22: 2 km</title></circle><circle cx="156.08333333333334" cy="211.87096774193546" fill="#54646a" r="3.3125"><title>2024-09-23: 1 km</title></circle><circle cx="156.08333333333334" cy="220.70967741935482" fill="#5093aa" r="3.3125"><title>2024-09-24: 5 km</title></circle><circle cx="156.08333333333334" cy="229.54838709677418" fill="#FFFF00" r="3.3125"><title>2024-09-25: 11 km</title></circle><circle cx="156.08333333333334" cy="238.3870967741935" fill="#4fa8c5" r="3.3125"><title>2024-09-26: 6 km</title></circle><circle cx="156.08333333333334" cy="247.22580645161287" fill="#527e8d" r="3.3125"><title>2024-09-27: 3 km</title></circle><circle cx="156.08333333333334" cy="256.06451612903226" fill="#4fa5c3" r="3.3125"><title>2024-09-28: 6 km</title></circle><circle cx="156.08333333333334" cy="264.90322580645164" fill="#FFFF00" r="3.3125"><title>2024-09-29: 10 km</title></circle><circle cx="156.08333333333334" cy="273.741935483871" fill="#4fb2d3" r="3.3125"><title>2024-09-30: 7 km</title></circle><circle cx="164.91666666666666" cy="17.419354838709676" fill="#518c9f" r="3.3125"><title>2024-10-01: 4 km</title></circle><circle cx="164.91666666666666" cy="26.25806451612903" fill="#4eb3d4" r="3.3125"><title>2024-10-02: 7 km</title></circle><circle cx="164.91666666666666" cy="35.096774193548384" fill="#FFFF00" r="3.3125"><title>2024-10-03: 15 km</title></circle><circle cx="164.91666666666666" cy="43.935483870967744" fill="#53666d" r="3.3125"><title>2024-10-04: 1 km</title></circle><circle cx="164.91666666666666" cy="52.774193548387096" fill="#FFFF00" r="3.3125"><title>2024-10-05: 13 km</title></circle><circle cx="164.91666666666666" cy="61.61290322580645" fill="#5097af" r="3.3125"><title>2024-10-06: 5 km</title></circle><circle cx="164.91666666666666" cy="70.45161290322581" fill="#53686f" r="3.3125"><title>2024-10-07: 1 km</title></circle><circle cx="164.91666666666666" cy="79.29032258064517" fill="#FFFF00" r="3.3125"><title>2024-10-08: 16 km</title></circle><circle cx="164.91666666666666" cy="88.12903225806451" fill="#4faccb" r="3.3125"><title>2024-10-09: 6 km</title></circle><circle cx="164.91666666666666" cy="96.96774193548387" fill="#FFFF00" r="3.3125"><title>2024-10-10: 12 km</title></circle><circle cx="164.91666666666666" cy="105.80645161290322" fill="#53676e" r="3.3125"><title>2024-10-11: 1 km</title></circle><circle cx="164.91666666666666" cy="114.64516129032258" fill="#FFFF00" r="3.3125"><title>2024-10-12: 12 km</title></circle><circle cx="164.91666666666666" cy="123.48387096774194" fill="#53666d" r="3.3125"><title>2024-10-13: 1 km</title></circle><circle cx="164.91666666666666" cy="132.32258064516128" fill="#546369" r="3.3125"><title>2024-10-14: 1 km</title></circle><circle cx="164.91666666666666" cy="141.16129032258064" fill="#FFFF00" r="3.3125"><title>2024-10-15: 17 km</title></circle><circle cx="164.91666666666666" cy="149.99999999999997" fill="#53666c" r="3.3125"><title>2024-10-16: 1 km</title></circle><circle cx="164.91666666666666" cy="158.83870967741933" fill="#FFFF00" r="3.3125"><title>2024-10-17: 10 km</title></circle><circle cx="164.91666666666666" cy="167.6774193548387" fill="#53666c" r="3.3125"><title>2024-10-18: 1 km</title></circle><circle cx="164.91666666666666" cy="176.51612903225805" fill="#536b73" r="3.3125"><title>2024-10-19: 1 km</title></circle><circle cx="164.91666666666666" cy="185.35483870967738" fill="#53666d" r="3.3125"><title>2024-10-20: 1 km</title></circle><circle cx="164.91666666666666" cy="194.19354838709674" fill="#546469" r="3.3125"><title>2024-10-21: 1 km</title></circle><circle cx="164.91666666666666" cy="203.0322580645161" fill="#FFFF00" r="3.3125"><title>2024-10-22: 11 km</title></circle><circle cx="164.91666666666666" cy="211.87096774193546" fill="#53666d" r="3.3125"><title>2024-10-23: 1 km</title></circle><circle cx="164.91666666666666" cy="220.70967741935482" fill="#FFFF00" r="3.3125"><title>2024-10-24: 14 km</title></circle><circle cx="164.91666666666666" cy="229.54838709677418" fill="#546368" r="3.3125"><title>2024-10-25: 1 km</title></circle><circle cx="164.91666666666666" cy="238.3870967741935" fill="#FFFF00" r="3.3125"><title>2024-10-26: 19 km</title></circle><circle cx="164.91666666666666" cy="247.22580645161287" fill="#53656c" r="3.3125"><title>2024-10-27: 1 km</title></circle><circle cx="164.91666666666666" cy="256.06451612903226" fill="#53656b" r="3.3125"><title>2024-10-28: 1 km</title></circle><circle cx="164.91666666666666" cy="264.90322580645164" fill="#FFFF00" r="3.3125"><title>2024-10-29: 11 km</title></circle><circle cx="164.91666666666666" cy="273.741935483871" fill="#53656b" r="3.3125"><title>2024-10-30: 1 km</title></circle><circle cx="164.91666666666666" cy="282.5806451612903" fill="#555555" r="3.3125"><title>2024-10-31</title></circle><circle cx="173.75" cy="17.419354838709676" fill="#FFFF00" r="3.3125"><title>2024-11-01: 11 km</title></circle><circle cx="173.75" cy="26.25806451612903" fill="#FFFF00" r="3.3125"><title>2024-11-02: 13 km</title></circle><circle cx="173.75" cy="35.096774193548384" fill="#5098b0" r="3.3125"><title>2024-11-03: 5 km</title></circle><circle cx="173.75" cy="43.935483870967744" fill="#53676d" r="3.3125"><title>2024-11-04: 1 km</title></circle><circle cx="173.75" cy="52.774193548387096" fill="#FFFF00" r="3.3125"><title>2024-11-05: 32 km</title></circle><circle cx="173.75" cy="61.61290322580645" fill="#53666c" r="3.3125"><title>2024-11-06: 1 km</title></circle><circle cx="173.75" cy="70.45161290322581" fill="#509eb8" r="3.3125"><title>2024-11-07: 5 km</title></circle><circle cx="173.75" cy="79.29032258064517" fill="#53656a" r="3.3125"><title>2024-11-08: 1 km</title></circle><circle cx="173.75" cy="88.12903225806451" fill="#FFFF00" r="3.3125"><title>2024-11-09: 10 km</title></circle><circle cx="173.75" cy="96.96774193548387" fill="#FFFF00" r="3.3125"><title>2024-11-10: 15 km</title></circle><circle cx="173.75" cy="105.80645161290322" fill="#53666c" r="3.3125"><title>2024-11-11: 1 km</title></circle><circle cx="173.75" cy="114.64516129032258" fill="#FFFF00" r="3.3125"><title>2024-11-12: 25 km</title></circle><circle cx="173.75" cy="123.48387096774194" fill="#54646a" r="3.3125"><title>2024-11-13: 1 km</title></circle><circle cx="173.75" cy="132.32258064516128" fill="#FFFF00" r="3.3125"><title>2024-11-14: 19 km</title></circle><circle cx="173.75" cy="141.16129032258064" fill="#4faccb" r="3.3125"><title>2024-11-15: 6 km</title></circle><circle cx="173.75" cy="149.99999999999997" fill="#FFFF00" r="3.3125"><title>2024-11-16: 18 km</title></circle><circle cx="173.75" cy="158.83870967741933" fill="#FFFF00" r="3.3125"><title>2024-11-17: 17 km</title></circle><circle cx="173.75" cy="167.6774193548387" fill="#53666c" r="3.3125"><title>2024-11-18: 1 km</title></circle><circle cx="173.75" cy="176.51612903225805" fill="#5192a9" r="3.3125"><title>2024-11-19: 4 km</title></circle><circle cx="173.75" cy="185.35483870967738" fill="#527783" r="3.3125"><title>2024-11-20: 2 km</title></circle><circle cx="173.75" cy="194.19354838709674" fill="#FFFF00" r="3.3125"><title>2024-11-21: 20 km</title></circle><circle cx="173.75" cy="203.0322580645161" fill="#FFFF00" r="3.3125"><title>2024-11-22: 10 km</title></circle><circle cx="173.75" cy="211.87096774193546" fill="#FFFF00" r="3.3125"><title>2024-11-23: 18 km</title></circle><circle cx="173.75" cy="220.70967741935482" fill="#53676e" r="3.3125"><title>2024-11-24: 1 km</title></circle><circle cx="173.75" cy="229.54838709677418" fill="#53686e" r="3.3125"><title>2024-11-25: 1 km</title></circle><circle cx="173.75" cy="238.3870967741935" fill="#FFFF00" r="3.3125"><title>2024-11-26: 13 km</title></circle><circle cx="173.75" cy="247.22580645161287" fill="#53676e" r="3.3125"><title>2024-11-27: 1 km</title></circle><circle cx="173.75" cy="256.06451612903226" fill="#FFFF00" r="3.3125"><title>2024-11-28: 10 km</title></circle><circle cx="173.75" cy="264.90322580645164" fill="#FFFF00" r="3.3125"><title>2024-11-29: 22 km</title></circle><circle cx="173.75" cy="273.741935483871" fill="#509eb9" r="3.3125"><title>2024-11-30: 5 km</title></circle><circle cx="182.58333333333334" cy="17.419354838709676" fill="#527884" r="3.3125"><title>2024-12-01: 2 km</title></circle><circle cx="182.58333333333334" cy="26.25806451612903" fill="#53666c" r="3.3125"><title>2024-12-02: 1 km</title></circle><circle cx="182.58333333333334" cy="35.096774193548384" fill="#FFFF00" r="3.3125"><title>2024-12-03: 12 km</title></circle><circle cx="182.58333333333334" cy="43.935483870967744" fill="#527c8a" r="3.3125"><title>2024-12-04: 3 km</title></circle><circle cx="182.58333333333334" cy="52.774193548387096" fill="#FFFF00" r="3.3125"><title>2024-12-05: 13 km</title></circle><circle cx="182.58333333333334" cy="61.61290322580645" fill="#555555" r="3.3125"><title>2024-12-06</title></circle><circle cx="182.58333333333334" cy="70.45161290322581" fill="#53666d" r="3.3125"><title>2024-12-07: 1 km</title></circle><circle cx="182.58333333333334" cy="79.29032258064517" fill="#527885" r="3.3125"><title>2024-12-08: 2 km</title></circle><circle cx="182.58333333333334" cy="88.12903225806451" fill="#555555" r="3.3125"><title>2024-12-09</title></circle><circle cx="182.58333333333334" cy="96.96774193548387" fill="#555555" r="3.3125"><title>2024-12-10</title></circle><circle cx="182.58333333333334" cy="105.80645161290322" fill="#4dc9f2" r="3.3125"><title>2024-12-11: 9 km</title></circle><circle cx="182.58333333333334" cy="114.64516129032258" fill="#53656a" r="3.3125"><title>2024-12-12: 1 km</title></circle><circle cx="182.58333333333334" cy="123.48387096774194" fill="#4fb1d2" r="3.3125"><title>2024-12-13: 7 km</title></circle><circle cx="182.58333333333334" cy="132.32258064516128" fill="#FFFF00" r="3.3125"><title>2024-12-14: 15 km</title></circle><circle cx="182.58333333333334" cy="141.16129032258064" fill="#FFFF00" r="3.3125"><title>2024-12-15: 11 km</title></circle><circle cx="182.58333333333334" cy="149.99999999999997" fill="#4ebbdf" r="3.3125"><title>2024-12-16: 8 km</title></circle><circle cx="182.58333333333334" cy="158.83870967741933" fill="#4ec0e7" r="3.3125"><title>2024-12-17: 8 km</title></circle><circle cx="182.58333333333334" cy="167.6774193548387" fill="#53737e" r="3.3125"><title>2024-12-18: 2 km</title></circle><circle cx="182.58333333333334" cy="176.51612903225805" fill="#53656a" r="3.3125"><title>2024-12-19: 1 km</title></circle><circle cx="182.58333333333334" cy="185.35483870967738" fill="#528394" r="3.3125"><title>2024-12-20: 3 km</title></circle><circle cx="182.58333333333334" cy="194.19354838709674" fill="#5098b1" r="3.3125"><title>2024-12-21: 5 km</title></circle><circle cx="182.58333333333334" cy="203.0322580645161" fill="#4dc9f3" r="3.3125"><title>2024-12-22: 9 km</title></circle><circle cx="182.58333333333334" cy="211.87096774193546" fill="#4fa5c2" r="3.3125"><title>2024-12-23: 6 km</title></circle><circle cx="182.58333333333334" cy="220.70967741935482" fill="#4fa6c3" r="3.3125"><title>2024-12-24: 6 km</title></circle><circle cx="182.58333333333334" cy="229.54838709677418" fill="#53656b" r="3.3125"><title>2024-12-25: 1 km</title></circle><circle cx="182.58333333333334" cy="238.3870967741935" fill="#FFFF00" r="3.3125"><title>2024-12-26: 12 km</title></circle><circle cx="182.58333333333334" cy="247.22580645161287" fill="#536d76" r="3.3125"><title>2024-12-27: 1 km</title></circle><circle cx="182.58333333333334" cy="256.06451612903226" fill="#53686e" r="3.3125"><title>2024-12-28: 1 km</title></circle><circle cx="182.58333333333334" cy="264.90322580645164" fill="#4fa4c1" r="3.3125"><title>2024-12-29: 6 km</title></circle><circle cx="182.58333333333334" cy="273.741935483871" fill="#FFFF00" r="3.3125"><title>2024-12-30: 11 km</title></circle><circle cx="182.58333333333334" cy="282.5806451612903" fill="#5096ad" r="3.3125"><title>2024-12-31: 5 km</title></circle></svg>